<svg xmlns="http://www.w3.org/2000/svg" viewBox="0 0 999.93 889.3">
    <style type="text/css">.st0{fill:#464646;stroke:#464646;stroke-width:20;stroke-miterlimit:10;}</style>
    <path class="st0" d="M999.93,322c-3.44,19.46-5.86,39.17-10.53,58.33C977.05,431,952.27,475.8,921.32,517.27c-47.77,64-105.85,118.09-165.79,170.23q-106,92.22-212.72,183.61c-27.26,23.45-56.56,24.47-82.84,1.68-92.39-80.1-185-160-276.27-241.33C136.79,589.63,94.63,543,60.27,489.92-1.33,394.75-18,292.81,21,185.65,56.29,88.73,124.83,25.33,227.73,5.48,334.39-15.09,420.29,23.11,488.5,105.26c3.72,4.48,7.17,9.19,11.72,15,4.19-5.34,7.82-10.12,11.61-14.77,39.54-48.4,87.76-83.84,149.44-98.45C768.8-18.38,883,26.51,945.05,117.83c30.66,45.1,47.65,94.89,53.13,148.88.35,3.49,1.15,6.93,1.75,10.39ZM500,830.17c2.56-2,4.63-3.5,6.55-5.16,79-68.26,158.43-136,236.72-205,54.69-48.23,106.69-99.29,147.24-160.63C929.05,401,948.1,337.44,939.26,267.12c-9.55-75.89-42-138.91-109.47-178.55C767,51.64,700.69,47.1,634,79.12c-39.44,18.93-68.57,49.81-92.92,85.51-3.48,5.1-6.61,10.45-10.25,15.43-16.08,22-44.73,21.91-61.07.14-14.21-18.94-27.25-39.07-43.44-56.17C374,68.76,309.35,47.32,234.84,63.44,154.47,80.82,101.68,131.73,75,208.36,43.87,297.41,58.68,381.18,110,459.28c31.84,48.45,70.82,90.89,113.65,129.43,70.82,63.72,143.07,125.86,214.79,188.57C458.71,795,479.27,812.4,500,830.17Z"/>
</svg>