<?xml version="1.0" encoding="utf-8"?>
<svg xmlns="http://www.w3.org/2000/svg" viewBox="0 0 1000 966.78">
    <style type="text/css">.st0{fill:#fff;stroke:#fff;stroke-width:20;stroke-miterlimit:10;}</style>
    <path class="st0" d="M0,411.09c5.58-9,13.94-11.4,24.06-11.32,33.53.28,67.06.11,100.59.11h11.43c4.83-26.43,9.59-52.22,14.27-78,13.15-72.62,26-145.28,39.48-217.85,7.7-41.54,38.26-68.07,80.57-70.23,17.21-.88,34.49-.28,51.75-.36h10.19C339.31,7.17,348.61,0,374.84,0q126,0,252,0C651.38,0,662,8.5,667.55,33.41c10.24,0,20.87-.19,31.49.05,14.94.34,30.24-.87,44.75,1.9,36.47,7,60.13,33.44,66.93,71.1q26,144,52.38,287.87c.28,1.53.63,3.06,1.14,5.55H877q48.84,0,97.67,0a67.11,67.11,0,0,1,9.73.42c9.66,1.47,15.9,8.39,15.58,16.93-.34,8.78-6.75,15.35-16.68,15.74-13,.51-26,.22-39,.27H931.7c-2.6,20.23-5.18,39.83-7.64,59.45q-14.34,114.24-28.62,228.5c-6,48.09-11.75,96.22-18.23,144.24-7.55,56-53.4,97.73-109.88,100.89-3.9.21-7.8.38-11.71.38q-255.87,0-511.75.07c-37.21,0-68.66-12.56-93.43-40.66-17.14-19.43-25.75-42.52-28.91-68Q103,708.5,84.21,558.91c-4.83-38.73-9.52-77.48-14.32-116.21-.36-2.87-1.16-5.68-2-9.45-15.41,0-30.64-.25-45.86.09C12,433.56,4.23,430.56,0,420.86ZM332.91,66.81c-20,0-39.45-.26-58.92.06-27.86.46-46.31,16.31-51.39,43.85Q210.23,177.86,198.08,245c-9.29,51.16-18.5,102.33-27.87,154.2H829.28a8,8,0,0,0,.2-1.54C812,301.1,794.78,204.46,777,107.92c-3.8-20.57-16.43-36.53-37.3-39-23.91-2.84-48.42-.66-72.67-.69-4.38,22.14-15.89,31.85-38.49,31.87q-128.42.12-256.83,0C349,100.07,337.44,90.32,332.91,66.81ZM611.57,766.18c3.42-55.33,6.83-110.27,10.24-165.35H378.31c3.45,55.44,6.85,110.17,10.28,165.35Zm43.7-165.57C651.81,656.37,648.42,711,645,766.23H856.31C863.19,711,870,656.09,876.93,600.61ZM143.81,765.84H355.17c-3.49-55.56-6.94-110.27-10.37-164.86H123.17C130.13,656.56,137,711.32,143.81,765.84Zm488.34-332H369.05c-.51,1.23-1,1.84-1,2.41,2.45,41.22,5,82.42,7.33,123.64.36,6.52,3.83,7,9,7q115.61-.13,231.21.07c6.77,0,9-2.19,9.28-8.8.93-20.46,2.47-40.89,3.68-61.33C629.79,476.13,630.93,455.41,632.15,433.89ZM118.87,566.21H342.7c-2.79-44.62-5.53-88.52-8.27-132.41H102.37C107.91,478.22,113.35,522,118.87,566.21ZM665.73,433.78c-2.76,44.34-5.48,88.05-8.24,132.41h223.8c5.52-44.29,11-88,16.49-132.41ZM609.46,800.49H390.7c2.79,44.25,5.55,87.91,8.34,132.17H601.1C603.89,888.56,606.65,844.89,609.46,800.49Zm-461.37,0c2.65,20.55,4.58,40.57,7.91,60.35,7.36,43.72,38,71,82.43,72.15,40.94,1,81.93.23,122.9.18,1.18,0,2.35-.6,4.26-1.11-2.79-44-5.55-87.59-8.34-131.57ZM634.53,932.73c45.81,0,90,.77,134.16-.29,25.92-.62,46.37-13.81,61.2-34.91,20.5-29.15,15.36-64.08,22.53-97H642.89C640.1,844.6,637.35,888.24,634.53,932.73ZM367.34,66.13H632.47V34.07H367.34Z"/>
</svg>